<svg width="25" height="24" viewBox="0 0 25 24" fill="none" xmlns="http://www.w3.org/2000/svg">
<path d="M14.343 14.1684L11.5146 11.34M12.2217 16.2897L9.39323 13.4613M16.4643 9.21868C16.4643 9.21868 19.2927 7.9459 19.2927 5.68316C19.2927 3.42041 18.2321 2.50118 17.525 1.79407M19.6737 8.14542C19.6737 8.14542 20.6737 9.14542 20.6737 10.1454C20.6737 11.1454 20.1737 13.6454 20.1737 13.6454C20.1737 13.6454 14.6737 19.1454 12.1737 21.6454C10.9126 22.9065 9.67368 21.6454 9.67368 21.6454L4.15055 16.1223C4.15055 16.1223 2.88951 14.8833 4.15055 13.6223L12.1506 5.62229C12.1506 5.62229 14.6506 5.12229 15.6506 5.12229C16.6506 5.12229 17.6506 6.12228 17.6506 6.12228L19.6737 8.14542Z" stroke="#606483" stroke-width="2" stroke-linecap="round" stroke-linejoin="round"/>
</svg>
