<svg width="25" height="24" viewBox="0 0 25 24" fill="none" xmlns="http://www.w3.org/2000/svg">
<path d="M15.5259 16.4216V12.9216M12.0259 16.4216V12.9216M8.52588 16.4216V12.9216M21.0259 12.4221L20.0259 18.4221C20.0259 18.9221 19.7259 19.9221 18.5259 19.9221H12.0259H5.60588C4.40588 19.9221 4.10588 18.9221 4.10588 18.4221L3.10588 12.4221C2.60588 12.4221 2.10588 11.9212 2.10588 11.4217C2.10588 10.9217 1.60588 8.92165 3.10588 8.92165C4.37079 8.92165 5.10588 8.92208 5.10588 8.92208L8.10588 4.92163C8.10588 4.92163 9.10588 3.4217 10.6059 4.42156C12.106 5.42149 11.1059 6.92186 11.1059 6.92186L9.60588 8.92208H14.5259L13.0259 6.92186C13.0259 6.92186 12.0258 5.42149 13.5259 4.42156C15.0259 3.4217 16.0259 4.92163 16.0259 4.92163L19.0259 8.92208C19.0259 8.92208 19.761 8.92165 21.0259 8.92165C22.5259 8.92165 22.0259 10.9217 22.0259 11.4217C22.0259 11.9212 21.5259 12.4221 21.0259 12.4221Z" stroke="#606483" stroke-width="2" stroke-linecap="round" stroke-linejoin="round"/>
</svg>
