<svg width="24" height="25" viewBox="0 0 24 25" fill="none" xmlns="http://www.w3.org/2000/svg">
<path d="M10.1679 7.0547C10.3534 7.3329 10.6656 7.5 11 7.5H20C20.2652 7.5 20.5196 7.60536 20.7071 7.79289C20.8946 7.98043 21 8.23478 21 8.5V19.5C21 19.7652 20.8946 20.0196 20.7071 20.2071C20.5196 20.3946 20.2652 20.5 20 20.5H4C3.73478 20.5 3.48043 20.3946 3.29289 20.2071C3.10536 20.0196 3 19.7652 3 19.5V5.5C3 5.23478 3.10536 4.98043 3.29289 4.79289C3.48043 4.60536 3.73478 4.5 4 4.5H8.46482L10.1679 7.0547Z" stroke="#606483" stroke-width="2" stroke-linecap="round" stroke-linejoin="round"/>
</svg>
