<svg width="24" height="25" viewBox="0 0 24 25" fill="none" xmlns="http://www.w3.org/2000/svg">
<path d="M11.3108 6.95374L12.0659 7.8236L12.8211 6.95374C13.7251 5.91242 15.1216 5.24805 16.5659 5.24805C19.1119 5.24805 21.0659 7.19224 21.0659 9.64314C21.0659 11.1623 20.3786 12.6221 18.9541 14.3304C17.5188 16.0517 15.4467 17.8974 12.8513 20.206L12.8499 20.2073L12.0634 20.9096L11.2813 20.2166C11.2809 20.2162 11.2805 20.2159 11.2802 20.2155C8.68506 17.9022 6.61324 16.0544 5.17791 14.3319C3.75325 12.6221 3.06592 11.1623 3.06592 9.64314C3.06592 7.19224 5.01996 5.24805 7.56592 5.24805C9.01026 5.24805 10.4068 5.91242 11.3108 6.95374Z" stroke="#606483" stroke-width="2"/>
</svg>
