<svg width="24" height="24" viewBox="0 0 24 24" fill="none" xmlns="http://www.w3.org/2000/svg">
<path d="M7.67043 11.5669L3.99411 8.47109C2.99408 7.47106 2.39271 5.67194 3.99406 4.47084C5.99401 2.97076 7.49404 4.47088 8.49406 5.47095L11.2161 8.97071M7.67043 11.5669L13.4941 16.4711C13.9941 20.4711 18.9941 21.9711 20.9941 17.4711C20.4941 17.4711 18.8941 17.6711 18.4941 16.4711C17.9941 14.9711 16.9941 14.471 15.4941 14.4711L14.7161 13.4708M7.67043 11.5669L5.99401 13.4708L3.49401 18.4708C3.09398 20.4708 4.66067 20.3041 5.49401 19.9708L10.494 17.4711L11.994 15.9708M14.7161 13.4708L19.994 8.47109C20.994 7.47071 20.7002 6.17693 19.494 4.97079C17.994 3.4708 16.994 3.47071 15.994 4.47075C15.594 4.87076 12.9754 7.30406 11.2161 8.97071M14.7161 13.4708L11.2161 8.97071M16.994 6.9707L17.494 7.47071" stroke="#606483" stroke-width="2" stroke-linecap="round" stroke-linejoin="round"/>
</svg>
