<svg width="24" height="24" viewBox="0 0 24 24" fill="none" xmlns="http://www.w3.org/2000/svg">
<path fill-rule="evenodd" clip-rule="evenodd" d="M6.97736 3.92556C8.39089 2.72406 10.241 2 12 2C12.5523 2 13 2.44772 13 3C13 3.55228 12.5523 4 12 4C10.759 4 9.35912 4.52594 8.27265 5.44944C7.19544 6.36507 6.5 7.604 6.5 9V14.9993C6.5 15.2077 6.43488 15.4116 6.31374 15.5812L4.94319 17.5H12C12.5523 17.5 13 17.9477 13 18.5C13 19.0523 12.5523 19.5 12 19.5H3C2.62542 19.5 2.28224 19.2907 2.11084 18.9576C1.93943 18.6245 1.96855 18.2236 2.18627 17.9188L4.5 14.6795V9C4.5 6.896 5.55456 5.13493 6.97736 3.92556Z" fill="#606483"/>
<path fill-rule="evenodd" clip-rule="evenodd" d="M17.0231 3.92556C15.6096 2.72406 13.7595 2 12.0005 2C11.4482 2 11.0005 2.44772 11.0005 3C11.0005 3.55228 11.4482 4 12.0005 4C13.2415 4 14.6414 4.52594 15.7278 5.44944C16.805 6.36507 17.5005 7.604 17.5005 9V14.9993C17.5005 15.2077 17.5656 15.4116 17.6868 15.5812L19.0573 17.5H12.0005C11.4482 17.5 11.0005 17.9477 11.0005 18.5C11.0005 19.0523 11.4482 19.5 12.0005 19.5H21.0005C21.3751 19.5 21.7182 19.2907 21.8897 18.9576C22.0611 18.6245 22.0319 18.2236 21.8142 17.9188L19.5005 14.6795V9C19.5005 6.896 18.4459 5.13493 17.0231 3.92556Z" fill="#606483"/>
<path fill-rule="evenodd" clip-rule="evenodd" d="M9.99998 18.993C9.99622 18.4439 9.54995 18 9 18C8.44772 18 8 18.4477 8 19H9C8 19 8 19.0005 8 19.001L8 19.0021L8.00001 19.0045L8.00004 19.0101L8.00022 19.0247C8.0004 19.036 8.00072 19.0501 8.00129 19.067C8.00241 19.1008 8.00451 19.1457 8.0084 19.2002C8.01616 19.3088 8.03119 19.4574 8.06048 19.6331C8.11827 19.9799 8.23572 20.4575 8.48057 20.9472C8.72739 21.4408 9.11331 21.9649 9.71092 22.3633C10.3148 22.7659 11.075 23 12 23C12.925 23 13.6852 22.7659 14.2891 22.3633C14.8867 21.9649 15.2726 21.4408 15.5194 20.9472C15.7643 20.4575 15.8817 19.9799 15.9395 19.6331C15.9688 19.4574 15.9838 19.3088 15.9916 19.2002C15.9955 19.1457 15.9976 19.1008 15.9987 19.067C15.9993 19.0501 15.9996 19.036 15.9998 19.0247L16 19.0101L16 19.0045L16 19.0021L16 19.001C16 19.0005 16 19 15 19H16C16 18.4477 15.5523 18 15 18C14.45 18 14.0038 18.4439 14 18.993L13.9998 19.0004C13.9995 19.0106 13.9987 19.0301 13.9967 19.0577C13.9927 19.1131 13.9843 19.1988 13.9667 19.3044C13.9308 19.5201 13.8607 19.7925 13.7306 20.0528C13.6024 20.3092 13.4258 20.5351 13.1797 20.6992C12.9398 20.8591 12.575 21 12 21C11.425 21 11.0602 20.8591 10.8203 20.6992C10.5742 20.5351 10.3976 20.3092 10.2694 20.0528C10.1393 19.7925 10.0692 19.5201 10.0333 19.3044C10.0157 19.1988 10.0073 19.1131 10.0033 19.0577C10.0014 19.0301 10.0005 19.0106 10.0002 19.0004L9.99998 18.993ZM14 18.9925V18.9925Z" fill="#606483"/>
<path fill-rule="evenodd" clip-rule="evenodd" d="M11.9488 3.31677C11.948 3.31897 11.9473 3.32117 11.9465 3.32336C11.9464 3.32372 11.9461 3.32459 11.9465 3.32336L11.9477 3.32001L11.9483 3.31828L11.9488 3.31677ZM12.0003 3.19915C11.9917 3.21671 11.9838 3.23375 11.9766 3.24989C11.964 3.27814 11.9552 3.30028 11.9504 3.31303L11.9465 3.32336C11.7692 3.84274 11.2056 4.12254 10.684 3.94868C10.1601 3.77404 9.87694 3.20772 10.0516 2.68377L11.0003 3C10.0516 2.68377 10.0515 2.68406 10.0516 2.68377L10.0524 2.68135L10.0533 2.67854L10.0557 2.67177L10.062 2.65376C10.0669 2.63984 10.0734 2.62209 10.0814 2.60104C10.0974 2.55909 10.1198 2.50311 10.149 2.43761C10.2059 2.30945 10.2945 2.13093 10.4182 1.9453C10.6252 1.6349 11.1361 1 12.0003 1C12.8645 1 13.3754 1.6349 13.5823 1.9453C13.7061 2.13093 13.7946 2.30945 13.8516 2.43761C13.8807 2.50311 13.9032 2.55909 13.9191 2.60104C13.9272 2.62209 13.9336 2.63984 13.9386 2.65376L13.9449 2.67177L13.9472 2.67854L13.9481 2.68135L13.9486 2.68261C13.9487 2.6829 13.949 2.68377 13.0003 3L13.949 2.68377C14.1236 3.20772 13.8404 3.77404 13.3165 3.94868C12.7949 4.12254 12.2314 3.84274 12.054 3.32336L12.0502 3.31303C12.0453 3.30028 12.0365 3.27814 12.024 3.24989C12.0168 3.23375 12.0089 3.21671 12.0003 3.19915Z" fill="#606483"/>
</svg>
