<svg width="22" height="23" viewBox="0 0 22 23" fill="none" xmlns="http://www.w3.org/2000/svg">
<path d="M4.10132 16.007H14.3809C14.8716 16.007 15.2897 15.6511 15.3681 15.1667L16.9658 5.2882L18.0214 2.85065C18.1798 2.48483 18.5404 2.24805 18.9391 2.24805H19.6257" stroke="#606483" stroke-width="2" stroke-linecap="round" stroke-linejoin="round"/>
<path d="M16.3432 5.14648H3.32704C2.68266 5.14648 2.20649 5.74699 2.35336 6.37441L4.02449 13.5134H12.6594" stroke="#606483" stroke-width="2" stroke-linecap="round" stroke-linejoin="round"/>
<path d="M6.35686 18.7559C6.57974 18.7559 6.7368 18.8224 6.88668 18.9723C7.03657 19.1222 7.10311 19.2792 7.10311 19.5021C7.10311 19.725 7.03657 19.8821 6.88668 20.0319C6.7368 20.1818 6.57974 20.2484 6.35686 20.2484C6.13397 20.2484 5.97691 20.1818 5.82703 20.0319C5.67714 19.8821 5.6106 19.725 5.6106 19.5021C5.6106 19.2792 5.67714 19.1222 5.82703 18.9723C5.97691 18.8224 6.13397 18.7559 6.35686 18.7559ZM11.6929 20.0319L10.9858 20.7391L11.6929 20.0319C11.543 19.8821 11.4764 19.725 11.4764 19.5021C11.4764 19.2792 11.543 19.1222 11.6929 18.9723L10.9966 18.2761L11.6929 18.9723C11.8428 18.8224 11.9998 18.7559 12.2227 18.7559C12.4456 18.7559 12.6026 18.8224 12.7525 18.9723C12.9024 19.1222 12.969 19.2792 12.969 19.5021C12.969 19.725 12.9024 19.8821 12.7525 20.0319C12.6026 20.1818 12.4456 20.2484 12.2227 20.2484C11.9998 20.2484 11.8428 20.1818 11.6929 20.0319Z" stroke="#606483" stroke-width="2"/>
</svg>
