<svg width="24" height="25" viewBox="0 0 24 25" fill="none" xmlns="http://www.w3.org/2000/svg">
<path d="M7.56592 10.748L11.9655 5.02863C12.3441 4.53646 12.9298 4.24805 13.5507 4.24805H14.1785C14.861 4.24805 15.343 4.91674 15.1272 5.56427L13.5659 10.248H20.0659C20.6182 10.248 21.0659 10.6958 21.0659 11.248V13.5667C21.0659 13.6866 21.0444 13.8056 21.0022 13.9178L18.5526 20.4503C18.2598 21.2309 17.5136 21.748 16.6799 21.748H7.56592M7.56592 10.748V21.748M7.56592 10.748H4.06592C3.51363 10.748 3.06592 11.1958 3.06592 11.748V20.748C3.06592 21.3003 3.51363 21.748 4.06592 21.748H7.56592" stroke="#606483" stroke-width="2" stroke-linejoin="round"/>
</svg>
