<svg width="25" height="24" viewBox="0 0 25 24" fill="none" xmlns="http://www.w3.org/2000/svg">
<path d="M16.0659 4.00002H18.0659C18.5964 4.00002 19.1051 4.21073 19.4801 4.5858C19.8552 4.96087 20.0659 5.46958 20.0659 6.00002V20C20.0659 20.5304 19.8552 21.0392 19.4801 21.4142C19.1051 21.7893 18.5964 22 18.0659 22H6.06592C5.53548 22 5.02678 21.7893 4.6517 21.4142C4.27663 21.0392 4.06592 20.5304 4.06592 20V6.00002C4.06592 5.46958 4.27663 4.96087 4.6517 4.5858C5.02678 4.21073 5.53548 4.00002 6.06592 4.00002H8.06592M9.25311 12.9489L11.4434 15.065L14.8962 10.8698M9.06604 2H15.066C15.6183 2 16.066 2.44772 16.066 3V5C16.066 5.55228 15.6183 6 15.066 6H9.06604C8.51376 6 8.06604 5.55228 8.06604 5V3C8.06604 2.44772 8.51376 2 9.06604 2Z" stroke="#606483" stroke-width="2" stroke-linecap="round" stroke-linejoin="round"/>
</svg>
