<svg width="24" height="25" viewBox="0 0 24 25" fill="none" xmlns="http://www.w3.org/2000/svg">
<path d="M4 7.25H20C20.6904 7.25 21.25 7.80964 21.25 8.5V18.5C21.25 19.1904 20.6904 19.75 20 19.75H4C3.30964 19.75 2.75 19.1904 2.75 18.5V8.5C2.75 7.80964 3.30964 7.25 4 7.25Z" stroke="#606483" stroke-width="1.5" stroke-linecap="round" stroke-linejoin="round"/>
<path d="M15.625 6.9375V5.33718C15.625 4.96596 15.4406 4.60995 15.1124 4.34746C14.7842 4.08497 14.3391 3.9375 13.875 3.9375H10.375C9.91087 3.9375 9.46575 4.08497 9.13756 4.34746C8.80937 4.60995 8.625 4.96596 8.625 5.33718V6.9375" stroke="#606483" stroke-width="1.5" stroke-linejoin="round"/>
<path d="M19.625 6.9375V9.6047C19.625 10.2234 19.2299 10.8168 18.5266 11.2542C17.8234 11.6917 16.8696 11.9375 15.875 11.9375H8.375C7.38044 11.9375 6.42661 11.6917 5.72335 11.2542C5.02009 10.8168 4.625 10.2234 4.625 9.6047V6.9375" stroke="#606483" stroke-width="1.5" stroke-linejoin="round"/>
<path d="M10.4375 13.5H13.5625" stroke="#606483" stroke-width="1.5" stroke-linecap="round"/>
</svg>
