<svg width="24" height="25" viewBox="0 0 24 25" fill="none" xmlns="http://www.w3.org/2000/svg">
<path d="M4 6.5C4 5.96957 4.21071 5.46086 4.58579 5.08579C4.96086 4.71071 5.46957 4.5 6 4.5H16C16.2652 4.5 16.5196 4.60536 16.7071 4.79289C16.8947 4.98043 17 5.23478 17 5.5V8.50001L18.7071 8.7929M4 6.5C4 7.03044 4.21071 7.53915 4.58579 7.91422C4.96086 8.28929 5.46957 8.50001 6 8.50001H18C18.2652 8.50001 18.5196 8.60537 18.7071 8.7929M4 6.5V18.5C4 19.0305 4.21071 19.5392 4.58579 19.9142C4.96086 20.2893 5.46957 20.5 6 20.5H18C18.2652 20.5 18.5196 20.3947 18.7071 20.2071C18.8947 20.0196 19 19.7652 19 19.5V16.5M18.7071 8.7929C18.8947 8.98044 19 9.23479 19 9.50001V12.5L18.7071 8.7929Z" stroke="#606483" stroke-width="2" stroke-linecap="round" stroke-linejoin="round"/>
<path d="M20 12.5V16.5H16C15.4696 16.5 14.9609 16.2893 14.5858 15.9142C14.2107 15.5391 14 15.0304 14 14.5C14 13.9696 14.2107 13.4609 14.5858 13.0858C14.9609 12.7107 15.4696 12.5 16 12.5H20Z" stroke="#606483" stroke-width="2" stroke-linecap="round" stroke-linejoin="round"/>
</svg>
