<svg width="72" height="71" viewBox="0 0 72 71" fill="none" xmlns="http://www.w3.org/2000/svg">
<path d="M0.506348 11.0999C0.506348 8.15837 1.67487 5.3373 3.75486 3.25731C5.83485 1.17732 8.65592 0.00878906 11.5975 0.00878906H51.5255C54.4671 0.00878906 57.2882 1.17732 59.3681 3.25731C61.4481 5.3373 62.6167 8.15837 62.6167 11.0999V26.7828C61.8819 26.6785 61.1406 26.6266 60.3984 26.6275H58.1802V11.0999C58.1802 9.33499 57.4791 7.64234 56.2311 6.39435C54.9831 5.14636 53.2905 4.44524 51.5255 4.44524H11.5975C9.83255 4.44524 8.1399 5.14636 6.89191 6.39435C5.64391 7.64234 4.9428 9.33499 4.9428 11.0999V51.028C4.9428 52.7929 5.64391 54.4855 6.89191 55.7335C8.1399 56.9815 9.83255 57.6827 11.5975 57.6827H18.2522V59.9009C18.2522 60.6551 18.3054 61.396 18.4074 62.1191H11.5975C8.65592 62.1191 5.83485 60.9506 3.75486 58.8706C1.67487 56.7906 0.506348 53.9695 0.506348 51.028V11.0999ZM49.3073 24.4093C49.3073 24.9976 49.0736 25.5618 48.6576 25.9778C48.2416 26.3938 47.6774 26.6275 47.0891 26.6275H24.9068C24.3185 26.6275 23.7543 26.3938 23.3383 25.9778C22.9223 25.5618 22.6886 24.9976 22.6886 24.4093C22.6886 23.821 22.9223 23.2567 23.3383 22.8407C23.7543 22.4247 24.3185 22.191 24.9068 22.191H47.0891C47.6774 22.191 48.2416 22.4247 48.6576 22.8407C49.0736 23.2567 49.3073 23.821 49.3073 24.4093ZM13.8157 15.5364C13.8157 14.9481 14.0494 14.3838 14.4654 13.9678C14.8814 13.5518 15.4456 13.3181 16.0339 13.3181H47.0891C47.6774 13.3181 48.2416 13.5518 48.6576 13.9678C49.0736 14.3838 49.3073 14.9481 49.3073 15.5364C49.3073 16.1247 49.0736 16.6889 48.6576 17.1049C48.2416 17.5209 47.6774 17.7546 47.0891 17.7546H16.0339C15.4456 17.7546 14.8814 17.5209 14.4654 17.1049C14.0494 16.6889 13.8157 16.1247 13.8157 15.5364ZM22.6886 42.1551C22.6886 39.2135 23.8571 36.3925 25.9371 34.3125C28.0171 32.2325 30.8382 31.0639 33.7797 31.0639H60.3984C63.34 31.0639 66.1611 32.2325 68.2411 34.3125C70.321 36.3925 71.4896 39.2135 71.4896 42.1551V59.9009C71.4896 62.8424 70.321 65.6635 68.2411 67.7435C66.1611 69.8235 63.34 70.992 60.3984 70.992H33.7797C30.8382 70.992 28.0171 69.8235 25.9371 67.7435C23.8571 65.6635 22.6886 62.8424 22.6886 59.9009V42.1551ZM33.7797 35.5004C32.2216 35.5001 30.7127 36.0465 29.5161 37.0445C28.3194 38.0425 27.511 39.4288 27.2315 40.9617L47.0891 52.878L66.9466 40.9617C66.6672 39.4288 65.8587 38.0425 64.6621 37.0445C63.4655 36.0465 61.9566 35.5001 60.3984 35.5004H33.7797ZM27.1251 59.9009C27.1251 61.6658 27.8262 63.3584 29.0742 64.6064C30.3222 65.8544 32.0148 66.5556 33.7797 66.5556H60.3984C62.1634 66.5555 63.856 65.8544 65.104 64.6064C66.352 63.3584 67.0531 61.6658 67.0531 59.9009V46.0725L48.2293 57.3677C47.8848 57.5741 47.4907 57.6831 47.0891 57.6831C46.6875 57.6831 46.2934 57.5741 45.9489 57.3677L27.1251 46.0725V59.9009Z" fill="#D8DEEB"/>
</svg>
