<svg width="18" height="15" viewBox="0 0 18 15" fill="none" xmlns="http://www.w3.org/2000/svg">
<path d="M9.00029 9.90184C10.3258 9.90184 11.4004 8.82726 11.4004 7.5017C11.4004 6.17614 10.3258 5.10156 9.00029 5.10156C7.67477 5.10156 6.60022 6.17614 6.60022 7.5017C6.60022 8.82726 7.67477 9.90184 9.00029 9.90184Z" fill="#728096"/>
<path d="M17.9643 7.29676C17.2585 5.47124 16.0334 3.89253 14.4402 2.75575C12.8471 1.61897 10.9557 0.973939 9 0.900391C7.04425 0.973939 5.15292 1.61897 3.55977 2.75575C1.96661 3.89253 0.741462 5.47124 0.0357458 7.29676C-0.0119153 7.42859 -0.0119153 7.57295 0.0357458 7.70478C0.741462 9.5303 1.96661 11.109 3.55977 12.2458C5.15292 13.3826 7.04425 14.0276 9 14.1012C10.9557 14.0276 12.8471 13.3826 14.4402 12.2458C16.0334 11.109 17.2585 9.5303 17.9643 7.70478C18.0119 7.57295 18.0119 7.42859 17.9643 7.29676ZM9 11.401C8.22863 11.401 7.47458 11.1723 6.83321 10.7437C6.19184 10.3151 5.69196 9.706 5.39677 8.99333C5.10158 8.28065 5.02434 7.49645 5.17483 6.73988C5.32532 5.98331 5.69676 5.28835 6.24221 4.7429C6.78765 4.19744 7.48258 3.82598 8.23913 3.67549C8.99567 3.525 9.77986 3.60224 10.4925 3.89743C11.2052 4.19263 11.8143 4.69253 12.2428 5.33392C12.6714 5.97531 12.9001 6.72938 12.9001 7.50077C12.8985 8.53469 12.4871 9.52581 11.756 10.2569C11.025 10.988 10.0339 11.3994 9 11.401Z" fill="#728096"/>
</svg>
