<svg width="20" height="20" viewBox="0 0 20 20" fill="none" xmlns="http://www.w3.org/2000/svg">
<path d="M8.93587 11.3989H14.4252C14.8429 11.3989 15.2434 11.5649 15.5388 11.8603C15.8341 12.1557 16 12.5564 16 12.9742V13.6078C16 13.9862 15.9183 14.36 15.7604 14.7038C15.6025 15.0476 15.3722 15.3532 15.0852 15.5997C13.9892 16.5407 12.4214 17 10.3987 17H10.2734C10.3788 16.7874 10.4203 16.5487 10.3929 16.313C10.3654 16.0772 10.2702 15.8545 10.1187 15.6718L10.041 15.5878L8.48024 14.0307C8.94213 13.236 9.10356 12.3019 8.93517 11.3982L8.93587 11.3989ZM5.14939 8.94839C5.74759 8.94852 6.33337 9.11907 6.83821 9.44007C7.34305 9.76106 7.74607 10.2192 8.00012 10.761C8.25416 11.3027 8.34872 11.9057 8.27274 12.4992C8.19676 13.0928 7.95337 13.6524 7.57106 14.1126L9.54689 16.0828C9.6413 16.1763 9.69678 16.3021 9.70215 16.4348C9.70753 16.5676 9.66239 16.6974 9.57584 16.7982C9.48929 16.899 9.36776 16.9632 9.23576 16.9779C9.10375 16.9926 8.97108 16.9567 8.86448 16.8775L8.80499 16.8264L6.77317 14.7988C6.35716 15.0491 5.88892 15.1999 5.40503 15.2393C4.92114 15.2787 4.4347 15.2056 3.9837 15.0258C3.53269 14.8461 3.12934 14.5644 2.80514 14.2029C2.48095 13.8414 2.24468 13.4098 2.1148 12.9419C1.98492 12.4739 1.96494 11.9823 2.05642 11.5053C2.14791 11.0284 2.34837 10.579 2.64217 10.1924C2.93597 9.80577 3.31514 9.49231 3.75006 9.27651C4.18499 9.06071 4.6639 8.94842 5.14939 8.94839ZM5.14939 9.9986C4.59252 9.9986 4.05845 10.2199 3.66468 10.6138C3.2709 11.0077 3.04968 11.542 3.04968 12.099C3.04968 12.6561 3.2709 13.1903 3.66468 13.5842C4.05845 13.9781 4.59252 14.1994 5.14939 14.1994C5.70627 14.1994 6.24034 13.9781 6.63411 13.5842C7.02789 13.1903 7.24911 12.6561 7.24911 12.099C7.24911 11.542 7.02789 11.0077 6.63411 10.6138C6.24034 10.2199 5.70627 9.9986 5.14939 9.9986ZM10.3987 3C11.3268 3 12.2169 3.36882 12.8732 4.02533C13.5295 4.68184 13.8982 5.57226 13.8982 6.5007C13.8982 7.42914 13.5295 8.31956 12.8732 8.97607C12.2169 9.63258 11.3268 10.0014 10.3987 10.0014C9.47054 10.0014 8.58043 9.63258 7.92414 8.97607C7.26785 8.31956 6.89915 7.42914 6.89915 6.5007C6.89915 5.57226 7.26785 4.68184 7.92414 4.02533C8.58043 3.36882 9.47054 3 10.3987 3Z" fill="white"/>
</svg>
