<svg width="20" height="20" viewBox="0 0 20 20" fill="none" xmlns="http://www.w3.org/2000/svg">
<path d="M17.6467 8.93804V9.36284C17.6467 9.71477 17.3614 10 17.0095 10H16.7971L16.1037 14.8531C16.0141 15.4809 15.4764 15.9473 14.8422 15.9473H5.15825C4.52405 15.9473 3.98636 15.4809 3.89664 14.8531L3.20337 10H2.99096C2.63904 10 2.35376 9.71477 2.35376 9.36284V8.93804C2.35376 8.58612 2.63904 8.30084 2.99096 8.30084H4.77888L7.61391 4.40271C7.88989 4.02326 8.42122 3.93933 8.80072 4.21532C9.18021 4.49131 9.2641 5.02266 8.98812 5.40214L6.87995 8.30084H13.1205L11.0123 5.40212C10.7363 5.02266 10.8202 4.49129 11.1997 4.2153C11.5791 3.93931 12.1105 4.02321 12.3865 4.40269L15.2215 8.30084H17.0095C17.3614 8.30084 17.6467 8.58612 17.6467 8.93804ZM10.6374 13.6109V10.6373C10.6374 10.2853 10.3521 10 10.0002 10C9.64829 10 9.363 10.2853 9.363 10.6373V13.6109C9.363 13.9628 9.64829 14.2481 10.0002 14.2481C10.3521 14.2481 10.6374 13.9628 10.6374 13.6109ZM13.611 13.6109V10.6373C13.611 10.2853 13.3257 10 12.9738 10C12.6219 10 12.3366 10.2853 12.3366 10.6373V13.6109C12.3366 13.9628 12.6219 14.2481 12.9738 14.2481C13.3257 14.2481 13.611 13.9628 13.611 13.6109ZM7.66379 13.6109V10.6373C7.66379 10.2853 7.37851 10 7.02659 10C6.67467 10 6.38939 10.2853 6.38939 10.6373V13.6109C6.38939 13.9628 6.67467 14.2481 7.02659 14.2481C7.37851 14.2481 7.66379 13.9628 7.66379 13.6109Z" fill="white"/>
</svg>
