<svg width="20" height="20" viewBox="0 0 20 20" fill="none" xmlns="http://www.w3.org/2000/svg">
<path d="M14.748 4.5189H11.72C11.599 4.15915 11.3681 3.84647 11.0598 3.62496C10.7516 3.40346 10.3816 3.2843 10.002 3.2843C9.62247 3.2843 9.25248 3.40346 8.94425 3.62496C8.63602 3.84647 8.4051 4.15915 8.28407 4.5189H5.37383C5.27083 4.504 5.16585 4.51112 5.06581 4.53977C4.96577 4.56843 4.87294 4.61798 4.79346 4.68514C4.71397 4.75231 4.64963 4.83557 4.60469 4.92942C4.55974 5.02328 4.53521 5.1256 4.53271 5.22964V16.0043C4.53327 16.0982 4.5523 16.191 4.58874 16.2775C4.62518 16.3641 4.67831 16.4426 4.74509 16.5086C4.81187 16.5746 4.89099 16.6268 4.97795 16.6622C5.0649 16.6976 5.15798 16.7156 5.25186 16.715H14.748C14.8419 16.7156 14.935 16.6976 15.0219 16.6622C15.1089 16.6268 15.188 16.5746 15.2548 16.5086C15.3216 16.4426 15.3747 16.3641 15.4111 16.2775C15.4476 16.191 15.4666 16.0982 15.4672 16.0043V5.22964C15.4666 5.13575 15.4476 5.04289 15.4111 4.95636C15.3747 4.86983 15.3216 4.79132 15.2548 4.72532C15.188 4.65933 15.1089 4.60713 15.0219 4.57171C14.935 4.53629 14.8419 4.51835 14.748 4.5189ZM7.17801 5.78057C7.17801 5.66903 7.22232 5.56206 7.30119 5.48319C7.38006 5.40432 7.48703 5.36001 7.59856 5.36001H9.04527V5.09506C9.04527 4.83685 9.14785 4.58921 9.33043 4.40663C9.51301 4.22405 9.76065 4.12147 10.0189 4.12147C10.2771 4.12147 10.5247 4.22405 10.7073 4.40663C10.8899 4.58921 10.9924 4.83685 10.9924 5.09506V5.38104H12.4392C12.5507 5.38104 12.6577 5.42535 12.7365 5.50422C12.8154 5.58309 12.8597 5.69006 12.8597 5.80159V6.55859H7.16119L7.17801 5.78057ZM13.2845 9.66229L9.44901 13.4978L7.2453 11.294C7.13376 11.1825 7.0711 11.0312 7.0711 10.8735C7.0711 10.7158 7.13376 10.5645 7.2453 10.4529C7.35684 10.3414 7.50811 10.2787 7.66585 10.2787C7.82359 10.2787 7.97487 10.3414 8.08641 10.4529L9.45742 11.8239L12.4602 8.82118C12.5717 8.70964 12.723 8.64698 12.8807 8.64698C13.0385 8.64698 13.1898 8.70964 13.3013 8.82118C13.4128 8.93272 13.4755 9.084 13.4755 9.24174C13.4755 9.39948 13.4128 9.55076 13.3013 9.66229H13.2845Z" fill="white"/>
</svg>
