<svg width="20" height="20" viewBox="0 0 20 20" fill="none" xmlns="http://www.w3.org/2000/svg">
<path d="M15.7927 5.94318H13.1592V5.43608C13.1587 5.03275 12.9921 4.64607 12.6959 4.36087C12.3998 4.07567 11.9982 3.91525 11.5794 3.91479H8.41976C8.00092 3.91525 7.59936 4.07567 7.30319 4.36087C7.00703 4.64607 6.84043 5.03275 6.83996 5.43608V5.94318H4.20749C3.92827 5.94348 3.66056 6.05043 3.46312 6.24056C3.26567 6.43069 3.15461 6.68848 3.1543 6.95737V15.0709C3.15461 15.3398 3.26567 15.5976 3.46312 15.7877C3.66056 15.9778 3.92827 16.0848 4.20749 16.0851H15.7927C16.0719 16.0848 16.3396 15.9778 16.537 15.7877C16.7345 15.5976 16.8456 15.3398 16.8459 15.0709V6.95737C16.8456 6.68848 16.7345 6.43069 16.537 6.24056C16.3396 6.05043 16.0719 5.94348 15.7927 5.94318ZM7.89316 8.47865C7.89316 8.61314 7.83768 8.74213 7.73892 8.83722C7.64017 8.93232 7.50622 8.98575 7.36656 8.98575C7.2269 8.98575 7.09296 8.93232 6.9942 8.83722C6.89544 8.74213 6.83996 8.61314 6.83996 8.47865V7.46446C6.83996 7.32997 6.89544 7.20099 6.9942 7.10589C7.09296 7.01079 7.2269 6.95737 7.36656 6.95737C7.50622 6.95737 7.64017 7.01079 7.73892 7.10589C7.83768 7.20099 7.89316 7.32997 7.89316 7.46446V8.47865ZM7.89316 5.43608C7.89334 5.30164 7.94887 5.17276 8.04759 5.0777C8.14631 4.98263 8.28015 4.92915 8.41976 4.92899H11.5794C11.719 4.92915 11.8528 4.98263 11.9515 5.0777C12.0502 5.17276 12.1058 5.30164 12.106 5.43608V5.94318H7.89316V5.43608ZM13.1592 8.47865C13.1592 8.61314 13.1037 8.74213 13.0049 8.83722C12.9062 8.93232 12.7722 8.98575 12.6326 8.98575C12.4929 8.98575 12.3589 8.93232 12.2602 8.83722C12.1614 8.74213 12.106 8.61314 12.106 8.47865V7.46446C12.106 7.32997 12.1614 7.20099 12.2602 7.10589C12.3589 7.01079 12.4929 6.95737 12.6326 6.95737C12.7722 6.95737 12.9062 7.01079 13.0049 7.10589C13.1037 7.20099 13.1592 7.32997 13.1592 7.46446V8.47865Z" fill="white"/>
</svg>
