<svg width="20" height="20" viewBox="0 0 20 20" fill="none" xmlns="http://www.w3.org/2000/svg">
<path fill-rule="evenodd" clip-rule="evenodd" d="M16.6977 14.6533C16.2579 14.8056 15.3893 15.1212 14.3906 13.4318C13.3919 11.744 12.0717 12.1362 12.0717 12.1362C11.9977 12.1489 11.9347 12.1736 11.8692 12.1957C10.3788 10.0733 6.18757 5.45072 5.81837 5.08068C5.2884 4.55156 4.3986 4.05477 3.65425 4.83483C2.95415 5.56812 3.31313 6.52513 3.8431 7.0551C4.2157 7.42769 8.86379 11.6402 10.9854 13.1255C10.9504 13.2175 10.9286 13.3141 10.9207 13.4122C10.9207 16.5138 14.0929 16.3496 14.7488 16.2296C15.9184 16.0178 17.1375 14.5028 16.6977 14.6533Z" fill="white"/>
<path fill-rule="evenodd" clip-rule="evenodd" d="M6.03885 10.177L5.32939 10.8873C5.32939 10.8873 3.36262 15.4129 3.22907 15.7787C3.12273 16.0679 3.48938 16.4346 3.74288 16.3104C4.1512 16.1088 8.62575 14.1667 8.62575 14.1667L9.61934 13.1697C8.39303 12.2136 7.20893 11.2008 6.03885 10.177Z" fill="white"/>
<path fill-rule="evenodd" clip-rule="evenodd" d="M11.9288 10.8529L15.5536 7.21625C15.9806 6.78922 16.0044 6.17333 15.5468 5.71651L13.8412 4.02367C13.3826 3.56686 12.6647 3.54304 12.2385 3.96923L8.93701 7.27665C9.95952 8.44589 10.9771 9.625 11.9288 10.8529Z" fill="white"/>
</svg>
