<svg width="12" height="12" viewBox="0 0 12 12" fill="none" xmlns="http://www.w3.org/2000/svg">
<path d="M10.4625 11.5H8.39655C8.15984 11.5 7.93282 11.406 7.76545 11.2386C7.59807 11.0712 7.50403 10.8442 7.50403 10.6075V7.92993H4.719V10.6075C4.719 10.8442 4.62496 11.0712 4.45758 11.2386C4.2902 11.406 4.06319 11.5 3.82648 11.5H1.53729C1.30058 11.5 1.07357 11.406 0.906188 11.2386C0.738808 11.0712 0.644775 10.8442 0.644775 10.6075V5.44761C0.644815 5.32378 0.670624 5.2013 0.720562 5.08798C0.770501 4.97466 0.843475 4.87297 0.934844 4.78938L5.39743 0.734002C5.56196 0.583479 5.77689 0.5 5.99988 0.5C6.22288 0.5 6.4378 0.583479 6.60233 0.734002L11.0649 4.78938C11.1563 4.87297 11.2293 4.97466 11.2792 5.08798C11.3291 5.2013 11.355 5.32378 11.355 5.44761V10.6075C11.355 10.8442 11.261 11.0712 11.0936 11.2386C10.9262 11.406 10.6992 11.5 10.4625 11.5Z" fill="white"/>
</svg>
