<svg width="20" height="20" viewBox="0 0 20 20" fill="none" xmlns="http://www.w3.org/2000/svg">
<path fill-rule="evenodd" clip-rule="evenodd" d="M16.6233 2.56864C16.576 2.45074 16.485 2.35563 16.3693 2.30309C16.2536 2.25056 16.1221 2.24464 16.0022 2.28658C15.8823 2.32852 15.7831 2.41508 15.7254 2.52826C15.6677 2.64144 15.6558 2.77252 15.6922 2.89423C16.7913 4.72126 16.5776 5.88405 15.4303 6.75554L14.9668 6.09132C14.811 5.86855 14.4625 5.68332 14.1916 5.68005L11.5902 5.69148C11.2724 5.70107 10.9631 5.79637 10.6951 5.96728L3.02955 11.3423C2.85125 11.4677 2.72993 11.6588 2.69216 11.8735C2.65438 12.0882 2.70323 12.3092 2.828 12.4879L6.3115 17.4721C6.57262 17.8434 6.9896 17.7985 7.3617 17.539L15.0272 12.1632C15.2475 12.0073 15.5021 11.6711 15.5919 11.4141L16.4062 8.84776C16.496 8.59154 16.4413 8.20068 16.2855 7.97791L16.0031 7.57317C17.5437 6.39242 17.7093 4.38976 16.6233 2.56864ZM14.6886 9.38877C14.5473 9.48762 14.388 9.55768 14.2197 9.59494C14.0514 9.6322 13.8774 9.63593 13.7077 9.60592C13.5379 9.57591 13.3758 9.51275 13.2305 9.42005C13.0851 9.32734 12.9595 9.20691 12.8607 9.06564C12.6607 8.77976 12.5824 8.42621 12.6428 8.0826C12.7032 7.73899 12.8975 7.4334 13.183 7.2329C13.4069 7.07608 13.6741 6.99311 13.9474 6.9956C14.2207 6.99809 14.4864 7.0859 14.7073 7.24677C14.4854 7.3806 14.3328 7.45893 14.3042 7.47117C14.2031 7.5194 14.1213 7.60056 14.0723 7.70134C14.0233 7.80213 14.01 7.91657 14.0346 8.0259C14.0591 8.13524 14.1201 8.233 14.2075 8.30315C14.2949 8.3733 14.4035 8.41168 14.5156 8.41202C14.5857 8.41202 14.6576 8.3957 14.7253 8.36388C14.8836 8.2888 15.0533 8.19986 15.2304 8.0946C15.2711 8.33945 15.2419 8.59082 15.146 8.81978C15.0502 9.04874 14.8916 9.24597 14.6886 9.38877ZM8.93923 9.14023C9.24648 8.91831 9.67547 8.98749 9.89739 9.29475L11.488 11.497C11.7099 11.8043 11.6407 12.2333 11.3335 12.4552C11.0262 12.6771 10.5972 12.6079 10.3753 12.3007L8.78471 10.0984C8.56279 9.79114 8.63197 9.36215 8.93923 9.14023ZM7.50346 10.9521C7.28154 10.6449 6.85255 10.5757 6.5453 10.7976C6.23804 11.0195 6.16886 11.4485 6.39078 11.7558L7.98138 13.958C8.2033 14.2653 8.63229 14.3345 8.93955 14.1126C9.24681 13.8906 9.31599 13.4617 9.09407 13.1544L7.50346 10.9521Z" fill="white"/>
</svg>
